# This file uses centimeters as units for non-parametric coordinates.

mtllib Pilar.mtl
g default
v 0.951057 -1.000000 -0.309017
v 0.809018 -1.000000 -0.587786
v 0.587786 -1.000000 -0.809017
v 0.309017 -1.000000 -0.951057
v 0.000000 -1.000000 -1.000000
v -0.309017 -1.000000 -0.951057
v -0.587785 -1.000000 -0.809017
v -0.809017 -1.000000 -0.587785
v -0.951057 -1.000000 -0.309017
v -1.000000 -1.000000 0.000000
v -0.951057 -1.000000 0.309017
v -0.809017 -1.000000 0.587785
v -0.587785 -1.000000 0.809017
v -0.309017 -1.000000 0.951057
v -0.000000 -1.000000 1.000000
v 0.309017 -1.000000 0.951057
v 0.587785 -1.000000 0.809017
v 0.809017 -1.000000 0.587785
v 0.951057 -1.000000 0.309017
v 1.000000 -1.000000 0.000000
v 0.000000 -1.000000 0.000000
v 0.000000 1.000000 0.000000
v 0.879733 0.975313 -0.285843
v 0.822343 1.000000 -0.267196
v 0.925005 0.975313 -0.000000
v 0.864662 1.000000 -0.000000
v 0.927286 0.925928 -0.301293
v 0.951057 0.866328 -0.309017
v 0.975005 0.925928 -0.000000
v 1.000000 0.866328 0.000000
v 0.788796 0.925928 -0.573094
v 0.809018 0.866328 -0.587786
v 0.748345 0.975313 -0.543705
v 0.699527 1.000000 -0.508236
v 0.573094 0.925929 -0.788796
v 0.587786 0.866328 -0.809017
v 0.543705 0.975313 -0.748345
v 0.508236 1.000000 -0.699527
v 0.301293 0.925929 -0.927285
v 0.309017 0.866328 -0.951057
v 0.285843 0.975313 -0.879733
v 0.267195 1.000000 -0.822343
v 0.000000 0.925929 -0.975006
v 0.000000 0.866328 -1.000000
v 0.000000 0.975313 -0.925006
v 0.000000 1.000000 -0.864663
v -0.301293 0.925928 -0.927285
v -0.309017 0.866328 -0.951057
v -0.285842 0.975313 -0.879733
v -0.267195 1.000000 -0.822343
v -0.573094 0.925929 -0.788796
v -0.587785 0.866328 -0.809017
v -0.543705 0.975313 -0.748345
v -0.508236 1.000000 -0.699527
v -0.788796 0.925929 -0.573094
v -0.809017 0.866328 -0.587785
v -0.748345 0.975313 -0.543705
v -0.699527 1.000000 -0.508236
v -0.927285 0.925929 -0.301293
v -0.951057 0.866328 -0.309017
v -0.879732 0.975313 -0.285842
v -0.822343 1.000000 -0.267195
v -0.975005 0.925929 0.000000
v -1.000000 0.866328 0.000000
v -0.925005 0.975313 0.000000
v -0.864662 1.000000 0.000000
v -0.927285 0.925929 0.301293
v -0.951057 0.866328 0.309017
v -0.879732 0.975313 0.285842
v -0.822343 1.000000 0.267195
v -0.788796 0.925928 0.573094
v -0.809017 0.866328 0.587785
v -0.748345 0.975313 0.543705
v -0.699527 1.000000 0.508236
v -0.573094 0.925929 0.788796
v -0.587785 0.866328 0.809017
v -0.543705 0.975313 0.748345
v -0.508236 1.000000 0.699526
v -0.301293 0.925929 0.927285
v -0.309017 0.866328 0.951057
v -0.285842 0.975313 0.879732
v -0.267195 1.000000 0.822343
v -0.000000 0.925929 0.975005
v -0.000000 0.866328 1.000000
v -0.000000 0.975313 0.925005
v -0.000000 1.000000 0.864662
v 0.301293 0.925928 0.927285
v 0.309017 0.866328 0.951057
v 0.285842 0.975313 0.879732
v 0.267195 1.000000 0.822343
v 0.573094 0.925928 0.788796
v 0.587785 0.866328 0.809017
v 0.543704 0.975313 0.748345
v 0.508236 1.000000 0.699526
v 0.788796 0.925928 0.573094
v 0.809017 0.866328 0.587785
v 0.748345 0.975313 0.543704
v 0.699526 1.000000 0.508236
v 0.927285 0.925929 0.301293
v 0.951057 0.866328 0.309017
v 0.879732 0.975313 0.285842
v 0.822343 1.000000 0.267195
vt 0.648603 0.107966
vt 0.626409 0.064408
vt 0.591842 0.029841
vt 0.548284 0.007647
vt 0.500000 -0.000000
vt 0.451716 0.007647
vt 0.408159 0.029841
vt 0.373591 0.064409
vt 0.351397 0.107966
vt 0.343750 0.156250
vt 0.351397 0.204534
vt 0.373591 0.248091
vt 0.408159 0.282659
vt 0.451716 0.304853
vt 0.500000 0.312500
vt 0.548284 0.304853
vt 0.591841 0.282659
vt 0.626409 0.248091
vt 0.648603 0.204534
vt 0.656250 0.156250
vt 0.500000 0.156250
vt 0.624531 0.682871
vt 0.624286 0.687362
vt 0.613219 0.687500
vt 0.375719 0.687500
vt 0.387031 0.682871
vt 0.386787 0.687362
vt 0.612031 0.682871
vt 0.611786 0.687362
vt 0.600719 0.687500
vt 0.375156 0.673612
vt 0.625000 0.662437
vt 0.612656 0.673612
vt 0.600156 0.673612
vt 0.387656 0.673612
vt 0.388219 0.687500
vt 0.399531 0.682871
vt 0.399287 0.687362
vt 0.400156 0.673612
vt 0.400719 0.687500
vt 0.412031 0.682871
vt 0.411787 0.687362
vt 0.412656 0.673612
vt 0.413219 0.687500
vt 0.424531 0.682871
vt 0.424286 0.687362
vt 0.425156 0.673612
vt 0.425719 0.687500
vt 0.437031 0.682871
vt 0.436786 0.687362
vt 0.437656 0.673612
vt 0.438219 0.687500
vt 0.449531 0.682871
vt 0.449286 0.687362
vt 0.450156 0.673612
vt 0.450719 0.687500
vt 0.462031 0.682871
vt 0.461786 0.687362
vt 0.462656 0.673612
vt 0.463219 0.687500
vt 0.474531 0.682871
vt 0.474286 0.687362
vt 0.475156 0.673612
vt 0.475719 0.687500
vt 0.487031 0.682871
vt 0.486786 0.687362
vt 0.487656 0.673612
vt 0.488219 0.687500
vt 0.499531 0.682871
vt 0.499286 0.687362
vt 0.500156 0.673612
vt 0.500719 0.687500
vt 0.512031 0.682871
vt 0.511786 0.687362
vt 0.512656 0.673612
vt 0.513219 0.687500
vt 0.524531 0.682871
vt 0.524286 0.687362
vt 0.525156 0.673612
vt 0.525719 0.687500
vt 0.537031 0.682871
vt 0.536786 0.687362
vt 0.537656 0.673612
vt 0.538219 0.687500
vt 0.549531 0.682871
vt 0.549286 0.687362
vt 0.550156 0.673612
vt 0.550719 0.687500
vt 0.562031 0.682871
vt 0.561786 0.687362
vt 0.562656 0.673612
vt 0.563219 0.687500
vt 0.574531 0.682871
vt 0.574286 0.687362
vt 0.575156 0.673612
vt 0.575719 0.687500
vt 0.587031 0.682871
vt 0.586786 0.687362
vt 0.587656 0.673612
vt 0.588219 0.687500
vt 0.599531 0.682871
vt 0.599286 0.687362
vt 0.624844 0.673612
vt 0.612969 0.682871
vt 0.375469 0.682871
vt 0.387344 0.673612
vt 0.387969 0.682871
vt 0.399844 0.673612
vt 0.400469 0.682871
vt 0.412344 0.673612
vt 0.412969 0.682871
vt 0.424844 0.673612
vt 0.425469 0.682871
vt 0.437344 0.673612
vt 0.437969 0.682871
vt 0.449844 0.673612
vt 0.450469 0.682871
vt 0.462344 0.673612
vt 0.462969 0.682871
vt 0.474844 0.673612
vt 0.475469 0.682871
vt 0.487344 0.673612
vt 0.487969 0.682871
vt 0.499844 0.673612
vt 0.500469 0.682871
vt 0.512344 0.673612
vt 0.512969 0.682871
vt 0.524844 0.673612
vt 0.525469 0.682871
vt 0.537344 0.673612
vt 0.537969 0.682871
vt 0.549844 0.673612
vt 0.550469 0.682871
vt 0.562344 0.673612
vt 0.562969 0.682871
vt 0.574844 0.673612
vt 0.575469 0.682871
vt 0.587344 0.673612
vt 0.587969 0.682871
vt 0.599844 0.673612
vt 0.600469 0.682871
vt 0.612344 0.673612
vt 0.375000 0.312500
vt 0.387500 0.312500
vt 0.375000 0.662437
vt 0.400000 0.312500
vt 0.387500 0.662437
vt 0.412500 0.312500
vt 0.400000 0.662437
vt 0.425000 0.312500
vt 0.412500 0.662437
vt 0.437500 0.312500
vt 0.425000 0.662437
vt 0.450000 0.312500
vt 0.437500 0.662437
vt 0.462500 0.312500
vt 0.450000 0.662437
vt 0.475000 0.312500
vt 0.462500 0.662437
vt 0.487500 0.312500
vt 0.475000 0.662437
vt 0.500000 0.312500
vt 0.487500 0.662437
vt 0.512500 0.312500
vt 0.500000 0.662437
vt 0.525000 0.312500
vt 0.512500 0.662437
vt 0.537500 0.312500
vt 0.525000 0.662437
vt 0.550000 0.312500
vt 0.537500 0.662437
vt 0.562500 0.312500
vt 0.550000 0.662437
vt 0.575000 0.312500
vt 0.562500 0.662437
vt 0.587500 0.312500
vt 0.575000 0.662437
vt 0.600000 0.312500
vt 0.587500 0.662437
vt 0.612500 0.312500
vt 0.600000 0.662437
vt 0.625000 0.312500
vt 0.612500 0.662437
vt 0.609301 0.923162
vt 0.579412 0.953051
vt 0.541749 0.972241
vt 0.500000 0.978853
vt 0.458251 0.972241
vt 0.420588 0.953051
vt 0.390699 0.923162
vt 0.371509 0.885499
vt 0.364896 0.843750
vt 0.371509 0.802001
vt 0.390699 0.764338
vt 0.420588 0.734449
vt 0.458251 0.715259
vt 0.500000 0.708646
vt 0.541749 0.715259
vt 0.579412 0.734449
vt 0.609301 0.764338
vt 0.628491 0.802001
vt 0.635103 0.843750
vt 0.628491 0.885499
vt 0.500000 0.843750
vn 0.000000 -1.000000 0.000000
vn 0.000000 -1.000000 0.000000
vn 0.000000 -1.000000 0.000000
vn 0.000000 -1.000000 0.000000
vn 0.000000 -1.000000 0.000000
vn 0.000000 -1.000000 0.000000
vn 0.000000 -1.000000 0.000000
vn 0.000000 -1.000000 0.000000
vn 0.000000 -1.000000 0.000000
vn 0.000000 -1.000000 0.000000
vn 0.000000 -1.000000 0.000000
vn 0.000000 -1.000000 0.000000
vn 0.000000 -1.000000 0.000000
vn 0.000000 -1.000000 0.000000
vn 0.000000 -1.000000 0.000000
vn 0.000000 -1.000000 0.000000
vn 0.000000 -1.000000 0.000000
vn 0.000000 -1.000000 0.000000
vn 0.000000 -1.000000 0.000000
vn 0.000000 -1.000000 0.000000
vn 0.000000 -1.000000 0.000000
vn 0.547387 0.817762 -0.177856
vn 0.057938 0.998143 -0.018825
vn 0.060920 0.998143 0.000000
vn 0.575556 0.817762 0.000001
vn 0.465635 0.817762 -0.338304
vn 0.049285 0.998143 -0.035808
vn 0.057938 0.998143 0.018825
vn 0.547386 0.817762 0.177857
vn 0.791480 0.554459 -0.257167
vn 0.950984 0.012340 -0.308993
vn 0.808955 0.012340 -0.587741
vn 0.673273 0.554459 -0.489162
vn 0.832211 0.554459 0.000001
vn 0.999924 0.012340 0.000001
vn 0.791480 0.554459 0.257167
vn 0.950984 0.012340 0.308993
vn 0.587740 0.012340 -0.808955
vn 0.489161 0.554459 -0.673273
vn 0.338303 0.817762 -0.465635
vn 0.035808 0.998143 -0.049285
vn 0.308993 0.012340 -0.950984
vn 0.257167 0.554459 -0.791480
vn 0.177857 0.817762 -0.547387
vn 0.018825 0.998143 -0.057938
vn -0.000000 0.012340 -0.999924
vn 0.000000 0.554459 -0.832211
vn -0.000000 0.817762 -0.575557
vn 0.000000 0.998143 -0.060920
vn -0.308994 0.012340 -0.950984
vn -0.257167 0.554459 -0.791480
vn -0.177857 0.817762 -0.547387
vn -0.018825 0.998143 -0.057938
vn -0.587741 0.012340 -0.808955
vn -0.489162 0.554459 -0.673273
vn -0.338304 0.817762 -0.465635
vn -0.035808 0.998143 -0.049285
vn -0.808956 0.012340 -0.587740
vn -0.673273 0.554459 -0.489161
vn -0.465635 0.817762 -0.338303
vn -0.049285 0.998143 -0.035808
vn -0.950984 0.012340 -0.308993
vn -0.791480 0.554459 -0.257167
vn -0.547386 0.817762 -0.177857
vn -0.057938 0.998143 -0.018825
vn -0.999924 0.012340 0.000000
vn -0.832211 0.554459 -0.000000
vn -0.575556 0.817762 0.000000
vn -0.060920 0.998143 -0.000000
vn -0.950984 0.012340 0.308993
vn -0.791480 0.554459 0.257167
vn -0.547387 0.817762 0.177857
vn -0.057938 0.998143 0.018825
vn -0.808955 0.012340 0.587741
vn -0.673273 0.554459 0.489162
vn -0.465635 0.817762 0.338303
vn -0.049285 0.998143 0.035808
vn -0.587740 0.012340 0.808955
vn -0.489161 0.554459 0.673273
vn -0.338304 0.817762 0.465635
vn -0.035808 0.998143 0.049285
vn -0.308993 0.012340 0.950984
vn -0.257167 0.554459 0.791480
vn -0.177857 0.817762 0.547387
vn -0.018825 0.998143 0.057938
vn 0.000000 0.012340 0.999924
vn -0.000000 0.554458 0.832211
vn 0.000000 0.817762 0.575557
vn -0.000000 0.998143 0.060920
vn 0.308994 0.012340 0.950984
vn 0.257167 0.554459 0.791480
vn 0.177857 0.817762 0.547387
vn 0.018825 0.998143 0.057938
vn 0.587741 0.012340 0.808955
vn 0.489161 0.554459 0.673273
vn 0.338303 0.817762 0.465635
vn 0.035808 0.998143 0.049285
vn 0.808955 0.012340 0.587740
vn 0.673273 0.554459 0.489161
vn 0.465635 0.817762 0.338303
vn 0.049285 0.998143 0.035808
vn 0.951057 0.000000 -0.309016
vn 0.809017 0.000000 -0.587785
vn 0.587785 0.000000 -0.809017
vn 0.309017 0.000000 -0.951057
vn -0.000000 0.000000 -1.000000
vn -0.309017 0.000000 -0.951057
vn -0.587786 0.000000 -0.809017
vn -0.809017 0.000000 -0.587785
vn -0.951057 0.000000 -0.309017
vn -1.000000 0.000000 0.000000
vn -0.951057 0.000000 0.309017
vn -0.809017 0.000000 0.587785
vn -0.587785 0.000000 0.809017
vn -0.309017 0.000000 0.951057
vn 0.000000 0.000000 1.000000
vn 0.309017 0.000000 0.951057
vn 0.587785 0.000000 0.809017
vn 0.809017 0.000000 0.587785
vn 0.951057 0.000000 0.309017
vn 1.000000 0.000000 0.000001
vn 0.000000 1.000000 0.000000
s 1
g pCylinder3
usemtl initialShadingGroup
f 2/2/1 1/1/2 21/21/3
f 3/3/4 2/2/1 21/21/3
f 4/4/5 3/3/4 21/21/3
f 5/5/6 4/4/5 21/21/3
f 6/6/7 5/5/6 21/21/3
f 7/7/8 6/6/7 21/21/3
f 8/8/9 7/7/8 21/21/3
f 9/9/10 8/8/9 21/21/3
f 10/10/11 9/9/10 21/21/3
f 11/11/12 10/10/11 21/21/3
f 12/12/13 11/11/12 21/21/3
f 13/13/14 12/12/13 21/21/3
f 14/14/15 13/13/14 21/21/3
f 15/15/16 14/14/15 21/21/3
f 16/16/17 15/15/16 21/21/3
f 17/17/18 16/16/17 21/21/3
f 18/18/19 17/17/18 21/21/3
f 19/19/20 18/18/19 21/21/3
f 20/20/21 19/19/20 21/21/3
f 1/1/2 20/20/21 21/21/3
s 2
f 23/22/22 24/23/23 26/24/24 25/104/25
f 24/25/23 23/105/22 33/26/26 34/27/27
f 25/28/25 26/29/24 102/30/28 101/141/29
f 27/31/30 28/145/31 32/147/32 31/106/33
f 28/32/31 27/103/30 29/33/34 30/183/35
f 30/183/35 29/142/34 99/34/36 100/181/37
f 31/35/33 32/147/32 36/149/38 35/108/39
f 34/36/27 33/107/26 37/37/40 38/38/41
f 35/39/39 36/149/38 40/151/42 39/110/43
f 38/40/41 37/109/40 41/41/44 42/42/45
f 39/43/43 40/151/42 44/153/46 43/112/47
f 42/44/45 41/111/44 45/45/48 46/46/49
f 43/47/47 44/153/46 48/155/50 47/114/51
f 46/48/49 45/113/48 49/49/52 50/50/53
f 47/51/51 48/155/50 52/157/54 51/116/55
f 50/52/53 49/115/52 53/53/56 54/54/57
f 51/55/55 52/157/54 56/159/58 55/118/59
f 54/56/57 53/117/56 57/57/60 58/58/61
f 55/59/59 56/159/58 60/161/62 59/120/63
f 58/60/61 57/119/60 61/61/64 62/62/65
f 59/63/63 60/161/62 64/163/66 63/122/67
f 62/64/65 61/121/64 65/65/68 66/66/69
f 63/67/67 64/163/66 68/165/70 67/124/71
f 66/68/69 65/123/68 69/69/72 70/70/73
f 67/71/71 68/165/70 72/167/74 71/126/75
f 70/72/73 69/125/72 73/73/76 74/74/77
f 71/75/75 72/167/74 76/169/78 75/128/79
f 74/76/77 73/127/76 77/77/80 78/78/81
f 75/79/79 76/169/78 80/171/82 79/130/83
f 78/80/81 77/129/80 81/81/84 82/82/85
f 79/83/83 80/171/82 84/173/86 83/132/87
f 82/84/85 81/131/84 85/85/88 86/86/89
f 83/87/87 84/173/86 88/175/90 87/134/91
f 86/88/89 85/133/88 89/89/92 90/90/93
f 87/91/91 88/175/90 92/177/94 91/136/95
f 90/92/93 89/135/92 93/93/96 94/94/97
f 91/95/95 92/177/94 96/179/98 95/138/99
f 94/96/97 93/137/96 97/97/100 98/98/101
f 95/99/99 96/179/98 100/181/37 99/140/36
f 98/100/101 97/139/100 101/101/29 102/102/28
f 27/103/30 23/22/22 25/104/25 29/33/34
f 23/105/22 27/31/30 31/106/33 33/26/26
f 33/107/26 31/35/33 35/108/39 37/37/40
f 37/109/40 35/39/39 39/110/43 41/41/44
f 41/111/44 39/43/43 43/112/47 45/45/48
f 45/113/48 43/47/47 47/114/51 49/49/52
f 49/115/52 47/51/51 51/116/55 53/53/56
f 53/117/56 51/55/55 55/118/59 57/57/60
f 57/119/60 55/59/59 59/120/63 61/61/64
f 61/121/64 59/63/63 63/122/67 65/65/68
f 65/123/68 63/67/67 67/124/71 69/69/72
f 69/125/72 67/71/71 71/126/75 73/73/76
f 73/127/76 71/75/75 75/128/79 77/77/80
f 77/129/80 75/79/79 79/130/83 81/81/84
f 81/131/84 79/83/83 83/132/87 85/85/88
f 85/133/88 83/87/87 87/134/91 89/89/92
f 89/135/92 87/91/91 91/136/95 93/93/96
f 93/137/96 91/95/95 95/138/99 97/97/100
f 97/139/100 95/99/99 99/140/36 101/101/29
f 101/141/29 99/34/36 29/142/34 25/28/25
f 1/143/102 2/144/103 32/147/32 28/145/31
f 2/144/103 3/146/104 36/149/38 32/147/32
f 3/146/104 4/148/105 40/151/42 36/149/38
f 4/148/105 5/150/106 44/153/46 40/151/42
f 5/150/106 6/152/107 48/155/50 44/153/46
f 6/152/107 7/154/108 52/157/54 48/155/50
f 7/154/108 8/156/109 56/159/58 52/157/54
f 8/156/109 9/158/110 60/161/62 56/159/58
f 9/158/110 10/160/111 64/163/66 60/161/62
f 10/160/111 11/162/112 68/165/70 64/163/66
f 11/162/112 12/164/113 72/167/74 68/165/70
f 12/164/113 13/166/114 76/169/78 72/167/74
f 13/166/114 14/168/115 80/171/82 76/169/78
f 14/168/115 15/170/116 84/173/86 80/171/82
f 15/170/116 16/172/117 88/175/90 84/173/86
f 16/172/117 17/174/118 92/177/94 88/175/90
f 17/174/118 18/176/119 96/179/98 92/177/94
f 18/176/119 19/178/120 100/181/37 96/179/98
f 19/178/120 20/180/121 30/183/35 100/181/37
f 20/180/121 1/182/102 28/32/31 30/183/35
f 24/203/23 34/184/27 22/204/122
f 34/184/27 38/185/41 22/204/122
f 38/185/41 42/186/45 22/204/122
f 42/186/45 46/187/49 22/204/122
f 46/187/49 50/188/53 22/204/122
f 50/188/53 54/189/57 22/204/122
f 54/189/57 58/190/61 22/204/122
f 58/190/61 62/191/65 22/204/122
f 62/191/65 66/192/69 22/204/122
f 66/192/69 70/193/73 22/204/122
f 70/193/73 74/194/77 22/204/122
f 74/194/77 78/195/81 22/204/122
f 78/195/81 82/196/85 22/204/122
f 82/196/85 86/197/89 22/204/122
f 86/197/89 90/198/93 22/204/122
f 90/198/93 94/199/97 22/204/122
f 94/199/97 98/200/101 22/204/122
f 98/200/101 102/201/28 22/204/122
f 102/201/28 26/202/24 22/204/122
f 26/202/24 24/203/23 22/204/122
